<svg id="DesignIllust" xmlns="http://www.w3.org/2000/svg" xmlns:xlink="http://www.w3.org/1999/xlink" width="477.145" height="359.193" viewBox="0 0 477.145 359.193">
  <defs>
    <linearGradient id="linear-gradient" x1="14.929" y1="1" x2="14.929" gradientUnits="objectBoundingBox">
      <stop offset="0" stop-color="gray" stop-opacity="0.251"/>
      <stop offset="0.54" stop-color="gray" stop-opacity="0.122"/>
      <stop offset="1" stop-color="gray" stop-opacity="0.102"/>
    </linearGradient>
  </defs>
  <ellipse id="Ellipse_1" data-name="Ellipse 1" cx="102.049" cy="15.077" rx="102.049" ry="15.077" transform="translate(46.937 329.04)" fill="#d99519" opacity="0.1"/>
  <path id="Path_46" data-name="Path 46" d="M192.1,37c16.186-13.9,41.6-16.752,64.731-15.629,72.65,3.484,138.223,37.268,194.962,75.492,20.539,13.841,40.759,28.75,54.088,47.809,27.139,38.789,19.086,92.528-18.648,124.482-12.839,10.889-28.4,19.21-44.377,26.6-28.41,13.138-59.064,23.683-91.307,26.685-22.992,2.14-46.268.4-69.127-2.588-63.867-8.342-126.557-26.8-179.1-58.367-23.044-13.829-44.764-31.058-54.264-53.459s-3.437-50.787,20.113-64.042c9.732-5.486,21.368-7.957,32.759-10.29,16.757-3.422,33.807-6.8,48.94-13.753,15.627-7.191,34.134-21.09,31.04-37C178.588,65.87,175.916,50.881,192.1,37Z" transform="translate(-44.761 -21.152)" fill="#d99519" opacity="0.1"/>
  <path id="Path_47" data-name="Path 47" d="M937.046,71.833c2.9,18.661-5.178,35.334-5.178,35.334s-12.791-13.581-15.7-32.243c-1.628-10.47.2-20.3,2.114-26.928a4.687,4.687,0,0,1,3.854-3.339,4.774,4.774,0,0,1,4.692,2.082C930.679,52.5,935.418,61.367,937.046,71.833Z" transform="translate(-541.382 -34.783)" fill="#d99519"/>
  <path id="Path_48" data-name="Path 48" d="M1066.052,180.64a33.859,33.859,0,0,1,8.529,1.051,4.588,4.588,0,0,1,.1,8.916,33.949,33.949,0,0,1-8.5,1.231,38.712,38.712,0,0,1-19.146-5.4A38.72,38.72,0,0,1,1066.052,180.64Z" transform="translate(-616.377 -113.847)" fill="#d99519"/>
  <path id="Path_49" data-name="Path 49" d="M1006.545,97.873c-9.81,10.507-11.885,24.24-11.885,24.24s13.827-3.308,23.632-13.82a47.345,47.345,0,0,0,9.221-15,4.527,4.527,0,0,0-1.229-5.046,4.822,4.822,0,0,0-5.267-.733A48.505,48.505,0,0,0,1006.545,97.873Z" transform="translate(-586.509 -59.45)" fill="#d99519"/>
  <rect id="Rectangle_141" data-name="Rectangle 141" width="220.854" height="259.22" rx="19.8" transform="translate(219.767 36.442)" fill="#464353"/>
  <rect id="Rectangle_142" data-name="Rectangle 142" width="182.751" height="206.921" transform="translate(238.819 62.592)" fill="#d99519" opacity="0.1"/>
  <ellipse id="Ellipse_2" data-name="Ellipse 2" cx="7.777" cy="7.58" rx="7.777" ry="7.58" transform="translate(322.417 275.577)" fill="#fff"/>
  <path id="Path_50" data-name="Path 50" d="M808.354,142.981a3.582,3.582,0,1,1,3.674-3.581,3.628,3.628,0,0,1-3.674,3.581Z" transform="translate(-478.16 -87.798)" fill="#fff"/>
  <path id="Path_51" data-name="Path 51" d="M808.04,135.739a3.372,3.372,0,1,1-3.459,3.371,3.416,3.416,0,0,1,3.459-3.371m0-.419a3.892,3.892,0,0,0-3.608,2.325,3.72,3.72,0,0,0,.829,4.137,3.962,3.962,0,0,0,4.24.831,3.791,3.791,0,0,0,2.405-3.5,3.721,3.721,0,0,0-1.125-2.679A3.918,3.918,0,0,0,808.04,135.32Z" transform="translate(-477.846 -87.507)" fill="#fff"/>
  <rect id="Rectangle_143" data-name="Rectangle 143" width="37.902" height="50.222" rx="4.3" transform="translate(247.309 126.692)" fill="#fff" stroke="#fff" stroke-miterlimit="10" stroke-width="1"/>
  <rect id="Rectangle_144" data-name="Rectangle 144" width="30.795" height="15.935" rx="7.14" transform="translate(250.863 139.348)" fill="#d99519" opacity="0.5"/>
  <rect id="Rectangle_145" data-name="Rectangle 145" width="17.939" height="2.475" rx="1.238" transform="translate(257.291 161.783)" fill="#d99519"/>
  <rect id="Rectangle_146" data-name="Rectangle 146" width="37.902" height="50.222" rx="4.3" transform="translate(311.387 126.692)" fill="#fff" stroke="#fff" stroke-miterlimit="10" stroke-width="1"/>
  <rect id="Rectangle_147" data-name="Rectangle 147" width="18.162" height="9.398" rx="1.46" transform="translate(321.356 134.536)" fill="#d99519" opacity="0.5"/>
  <rect id="Rectangle_148" data-name="Rectangle 148" width="23.185" height="2.475" rx="1.238" transform="translate(318.7 152.741)" fill="#d99519"/>
  <rect id="Rectangle_149" data-name="Rectangle 149" width="23.185" height="2.475" rx="1.238" transform="translate(318.7 157.356)" fill="#d99519"/>
  <rect id="Rectangle_150" data-name="Rectangle 150" width="37.902" height="50.222" rx="4.3" transform="translate(375.177 91.015)" fill="#fff" stroke="#fff" stroke-miterlimit="10" stroke-width="1"/>
  <rect id="Rectangle_151" data-name="Rectangle 151" width="24.676" height="11.224" rx="1.46" transform="translate(381.79 98.809)" fill="#d99519" opacity="0.5"/>
  <rect id="Rectangle_152" data-name="Rectangle 152" width="24.676" height="11.224" rx="1.46" transform="translate(381.79 115.121)" fill="#d99519" opacity="0.5"/>
  <rect id="Rectangle_153" data-name="Rectangle 153" width="8.095" height="3.463" rx="1.732" transform="translate(379.818 135.39)" fill="#d99519"/>
  <rect id="Rectangle_154" data-name="Rectangle 154" width="8.095" height="3.463" rx="1.732" transform="translate(390.083 135.39)" fill="#d99519"/>
  <rect id="Rectangle_155" data-name="Rectangle 155" width="8.095" height="3.463" rx="1.732" transform="translate(400.348 135.39)" fill="#d99519"/>
  <rect id="Rectangle_156" data-name="Rectangle 156" width="37.902" height="50.222" rx="4.3" transform="translate(375.087 162.369)" fill="#fff" stroke="#fff" stroke-miterlimit="10" stroke-width="1"/>
  <rect id="Rectangle_157" data-name="Rectangle 157" width="11.326" height="11.224" rx="1.46" transform="translate(378.013 168.241)" fill="#d99519" opacity="0.5"/>
  <rect id="Rectangle_158" data-name="Rectangle 158" width="23.185" height="2.475" rx="1.238" transform="translate(382.447 186.299)" fill="#d99519"/>
  <rect id="Rectangle_159" data-name="Rectangle 159" width="23.185" height="2.475" rx="1.238" transform="translate(382.447 191.303)" fill="#d99519"/>
  <rect id="Rectangle_160" data-name="Rectangle 160" width="23.185" height="2.475" rx="1.238" transform="translate(382.447 196.308)" fill="#d99519"/>
  <path id="Path_52" data-name="Path 52" d="M735.519,376.439l-.58.272-4.7,2.2-.43.2a.237.237,0,0,1-.184.005.229.229,0,0,1-.13-.127.241.241,0,0,1,0-.084v-1.3a.225.225,0,0,0-.228-.222H717.842a.229.229,0,0,1-.232-.222v-1.838a.229.229,0,0,1,.232-.222H729.28a.229.229,0,0,0,.228-.226v-1.332a.261.261,0,0,1,0-.084.229.229,0,0,1,.131-.124.238.238,0,0,1,.183.007l.43.2,4.688,2.224.58.276a.22.22,0,0,1,0,.4Z" transform="translate(-428.502 -225.834)" fill="#fff" stroke="#fff" stroke-miterlimit="10" stroke-width="1"/>
  <path id="Path_53" data-name="Path 53" d="M885.589,353.329l-.378.507-3.076,4.087-.271.364a.238.238,0,0,1-.159.087.241.241,0,0,1-.176-.05.2.2,0,0,1-.052-.067l-.627-1.148a.239.239,0,0,0-.314-.1l-10.1,5.239a.233.233,0,0,1-.174.017.227.227,0,0,1-.135-.109l-.885-1.629a.218.218,0,0,1-.017-.17.223.223,0,0,1,.112-.132l10.1-5.231a.223.223,0,0,0,.112-.132.217.217,0,0,0-.017-.17l-.64-1.177a.145.145,0,0,1-.026-.08.214.214,0,0,1,.052-.172.226.226,0,0,1,.167-.075h.46l5.208-.184.645-.021a.229.229,0,0,1,.2.114A.217.217,0,0,1,885.589,353.329Z" transform="translate(-514.966 -214.019)" fill="#fff" stroke="#fff" stroke-miterlimit="10" stroke-width="1"/>
  <path id="Path_54" data-name="Path 54" d="M885.36,392.984h-6.3a.231.231,0,0,1-.167-.071.219.219,0,0,1-.06-.168.186.186,0,0,1,.021-.08l.576-1.177a.217.217,0,0,0,.01-.171.224.224,0,0,0-.117-.127l-10.312-4.824a.224.224,0,0,1-.107-.3l.816-1.654a.222.222,0,0,1,.13-.116.229.229,0,0,1,.176.011l10.312,4.829a.239.239,0,0,0,.309-.1l.593-1.2a.223.223,0,0,1,.179-.127.226.226,0,0,1,.2.085l.288.348,3.235,3.987.4.494a.218.218,0,0,1,.035.242A.229.229,0,0,1,885.36,392.984Z" transform="translate(-514.772 -232.207)" fill="#fff" stroke="#fff" stroke-miterlimit="10" stroke-width="1"/>
  <path id="Path_55" data-name="Path 55" d="M416.342,606.388l-.034,1.227-2.191,75.412H410.43l1.809-75.412.034-1.416Z" transform="translate(-234.074 -352.325)" fill="#504f60"/>
  <path id="Path_56" data-name="Path 56" d="M416.342,606.388l-.034,1.227-2.191,75.412H410.43l1.809-75.412.034-1.416Z" transform="translate(-234.074 -352.325)" opacity="0.1"/>
  <path id="Path_57" data-name="Path 57" d="M412.844,754.2l-2.759-.008-41.013-.084-2.183,0,1.16-3.5h44.5Z" transform="translate(-209.242 -436.257)" fill="#504f60"/>
  <path id="Path_58" data-name="Path 58" d="M418.743,606.388l-.034,1.227H414.64l.034-1.416Z" transform="translate(-236.475 -352.325)" opacity="0.1"/>
  <rect id="Rectangle_161" data-name="Rectangle 161" width="6.836" height="2.504" transform="translate(176.988 252.221)" fill="#504f60"/>
  <path id="Path_59" data-name="Path 59" d="M369.438,750.61l-.365,3.5-2.183,0,1.16-3.5Z" transform="translate(-209.242 -436.257)" opacity="0.1"/>
  <path id="Path_60" data-name="Path 60" d="M368.76,602.14l-.116,1.085-9.1,87.456-4.168-.188,9.586-87.268.107-.993Z" transform="translate(-202.677 -349.965)" fill="#504f60"/>
  <path id="Path_61" data-name="Path 61" d="M469.682,754.2l-2.759-.008-.374-3.585h2.84Z" transform="translate(-266.08 -436.257)" opacity="0.1"/>
  <path id="Path_62" data-name="Path 62" d="M466.24,690.493l-4.172.188-9.1-87.456-.112-1.085,3.682.092.107.993Z" transform="translate(-258.272 -349.965)" fill="#504f60"/>
  <rect id="Rectangle_162" data-name="Rectangle 162" width="91.912" height="85.899" transform="translate(133.797 165.941)" fill="#fff"/>
  <rect id="Rectangle_163" data-name="Rectangle 163" width="132.341" height="85.899" rx="4.13" transform="translate(113.636 165.941)" fill="#fff"/>
  <path id="Path_63" data-name="Path 63" d="M462.514,346.376v20.743H458.93V346.376a1.792,1.792,0,0,1,3.584,0Z" transform="translate(-280.971 -209.16)" fill="#504f60"/>
  <rect id="Rectangle_164" data-name="Rectangle 164" width="3.588" height="1.889" transform="translate(177.959 156.07)" opacity="0.1"/>
  <path id="Path_64" data-name="Path 64" d="M462.058,396.037v6.851h-6.4v-6.851a.849.849,0,0,1,.859-.838h4.653a.872.872,0,0,1,.624.236A.827.827,0,0,1,462.058,396.037Z" transform="translate(-279.106 -238.551)" fill="#504f60"/>
  <ellipse id="Ellipse_3" data-name="Ellipse 3" cx="1.358" cy="1.323" rx="1.358" ry="1.323" transform="translate(178.393 159.659)" opacity="0.1"/>
  <ellipse id="Ellipse_4" data-name="Ellipse 4" cx="1.358" cy="1.323" rx="1.358" ry="1.323" transform="translate(178.393 159.375)" fill="#3f3d56"/>
  <rect id="Rectangle_165" data-name="Rectangle 165" width="6.398" height="0.85" transform="translate(176.554 163.487)" opacity="0.1"/>
  <rect id="Rectangle_166" data-name="Rectangle 166" width="11.636" height="1.889" transform="translate(173.933 164.622)" opacity="0.1"/>
  <rect id="Rectangle_167" data-name="Rectangle 167" width="11.636" height="1.889" transform="translate(173.933 164.053)" fill="#504f60"/>
  <path id="Path_65" data-name="Path 65" d="M361.219,596h47.944a2.546,2.546,0,0,1,2.578,2.513H358.65A2.546,2.546,0,0,1,361.22,596Z" transform="translate(-204.542 -346.396)" opacity="0.1"/>
  <path id="Path_66" data-name="Path 66" d="M377.8,602.232l3.687-.092-.116,1.085H377.69Z" transform="translate(-215.401 -349.965)" opacity="0.1"/>
  <rect id="Rectangle_168" data-name="Rectangle 168" width="6.836" height="1.039" transform="translate(176.988 252.221)" opacity="0.1"/>
  <path id="Path_67" data-name="Path 67" d="M456.65,603.225h-3.678l-.112-1.085,3.682.092Z" transform="translate(-258.272 -349.965)" opacity="0.1"/>
  <path id="Path_68" data-name="Path 68" d="M361.219,597.4h47.944a2.546,2.546,0,0,1,2.578,2.513H358.65a2.546,2.546,0,0,1,2.578-2.513Z" transform="translate(-204.542 -347.21)" fill="#504f60"/>
  <path id="Path_69" data-name="Path 69" d="M538.75,441.47a.651.651,0,0,1,.542.166.615.615,0,0,1,.193.521,80.951,80.951,0,0,0,.451,17.719c.314,2.676.739,5.507,1.955,7.492a.62.62,0,0,1-.086.779,1.75,1.75,0,0,1-1.195.348l-19.177.1a.647.647,0,0,1-.507-.236.612.612,0,0,1-.121-.534c1.543-6.407,1.212-13.4.593-20.048-.3-3.271-.481-5.026,2.024-5.256,2.578-.226,5.156-.331,7.734-.54C531.776,441.935,536.734,441.792,538.75,441.47Z" transform="translate(-316.25 -265.44)" fill="#fff" stroke="#33313f" stroke-miterlimit="10" stroke-width="3"/>
  <path id="Path_70" data-name="Path 70" d="M524.138,533.16a.651.651,0,0,0-.542.166.615.615,0,0,0-.193.521,80.684,80.684,0,0,1-.455,17.719c-.309,2.676-.735,5.507-1.951,7.5a.612.612,0,0,0,.086.775,1.75,1.75,0,0,0,1.195.348l19.177.109a.655.655,0,0,0,.5-.241.62.62,0,0,0,.123-.534c-1.543-6.408-1.212-13.4-.593-20.048.305-3.271.481-5.026-2.024-5.256s-5.156-.331-7.734-.54C531.112,533.625,526.153,533.482,524.138,533.16Z" transform="translate(-316.312 -318.73)" fill="#fff" stroke="#33313f" stroke-miterlimit="10" stroke-width="3"/>
  <path id="Path_71" data-name="Path 71" d="M536.081,558.846a58.356,58.356,0,0,1,6.686.08.624.624,0,0,1,.567.544l.211,1.713a.238.238,0,0,1-.052.222.241.241,0,0,1-.163.042c-.937.025-1.873-.08-2.806,0-.58.046-1.156.155-1.719.218a21.043,21.043,0,0,1-2.862.05,14.773,14.773,0,0,1-3.983-.477s.077-1.42.077-1.554c0-.662-.021-.72.679-.737Z" transform="translate(-322.621 -333.629)" fill="none" stroke="#33313f" stroke-linecap="round" stroke-miterlimit="10" stroke-width="2"/>
  <path id="Path_72" data-name="Path 72" d="M536.081,573.349a57.439,57.439,0,0,0,6.686-.084.624.624,0,0,0,.567-.544l.211-1.709a.246.246,0,0,0-.052-.226.241.241,0,0,0-.163-.042c-.937-.025-1.873.084-2.806,0-.58-.042-1.156-.151-1.719-.214a20.393,20.393,0,0,0-2.862-.05,14.773,14.773,0,0,0-3.983.477s.077,1.416.077,1.554c0,.662-.021.716.679.737Z" transform="translate(-322.621 -340.41)" fill="none" stroke="#33313f" stroke-linecap="round" stroke-miterlimit="10" stroke-width="2"/>
  <path id="Path_73" data-name="Path 73" d="M536.081,584.507a57.4,57.4,0,0,1,6.686.084.624.624,0,0,1,.567.544l.211,1.709a.246.246,0,0,1-.052.226.241.241,0,0,1-.163.042c-.937.025-1.873-.084-2.806,0-.58.042-1.156.155-1.719.218a21.052,21.052,0,0,1-2.862.046,14.772,14.772,0,0,1-3.983-.473s.077-1.42.077-1.558c0-.662-.021-.716.679-.733Z" transform="translate(-322.621 -348.543)" fill="none" stroke="#33313f" stroke-linecap="round" stroke-miterlimit="10" stroke-width="2"/>
  <path id="Path_74" data-name="Path 74" d="M542.673,499a2.7,2.7,0,0,1,.189,1.457.213.213,0,0,1-.03.113.236.236,0,0,1-.18.063l-4.082.155s.228-1.173.258-1.256c.142-.477.5-.352.958-.377Z" transform="translate(-326.391 -298.881)" fill="#fff" stroke="#33313f" stroke-linecap="round" stroke-miterlimit="10" stroke-width="2"/>
  <path id="Path_75" data-name="Path 75" d="M557.018,499a2.7,2.7,0,0,1,.185,1.457.21.21,0,0,1-.026.113.244.244,0,0,1-.18.063l-4.086.155s.232-1.173.262-1.256c.138-.477.494-.352.958-.377Z" transform="translate(-334.57 -298.881)" fill="#fff" stroke="#33313f" stroke-linecap="round" stroke-miterlimit="10" stroke-width="2"/>
  <path id="Path_76" data-name="Path 76" d="M539.836,451.258l.55,4.607a1.235,1.235,0,0,1-.287.934,1.3,1.3,0,0,1-.886.452,62.954,62.954,0,0,1-10.476-.067,1.271,1.271,0,0,1-1.164-1.2,17.454,17.454,0,0,0-.37-2.442c-.142-.838-.3-1.646.718-1.893a18.021,18.021,0,0,1,3.51-.092q1.994-.038,3.975-.109C535.775,451.451,539.836,451.237,539.836,451.258Z" transform="translate(-319.85 -271.132)" fill="none" stroke="#33313f" stroke-miterlimit="10" stroke-width="3"/>
  <path id="Path_77" data-name="Path 77" d="M539.824,482.424l.541-4.607a1.235,1.235,0,0,0-.287-.934,1.3,1.3,0,0,0-.886-.452,63.411,63.411,0,0,0-10.476.063,1.271,1.271,0,0,0-1.164,1.2,17.454,17.454,0,0,1-.37,2.442c-.142.838-.3,1.646.718,1.893a18.021,18.021,0,0,0,3.51.092c1.328.025,2.651.059,3.975.109C535.764,482.244,539.824,482.458,539.824,482.424Z" transform="translate(-319.838 -285.656)" fill="none" stroke="#33313f" stroke-miterlimit="10" stroke-width="3"/>
  <path id="Path_78" data-name="Path 78" d="M536.13,540.389q-.215,2.3-.271,4.607a22.925,22.925,0,0,1-4.688-.523.836.836,0,0,1-.622-.319.792.792,0,0,1-.147-.669c-.03-.955-.546-3.086.834-3.221C531.648,540.221,536.125,540.464,536.13,540.389Z" transform="translate(-321.665 -322.861)" fill="none" stroke="#33313f" stroke-linecap="round" stroke-miterlimit="10" stroke-width="2"/>
  <path id="Path_79" data-name="Path 79" d="M344.694,490.6a1.392,1.392,0,0,1,1.11.377,1.317,1.317,0,0,1,.4,1.076,83.315,83.315,0,0,0,.541,16.84,21.1,21.1,0,0,0,1.684,7.019,1.073,1.073,0,0,1-.039,1.072,1.132,1.132,0,0,1-.958.528h0l-19.026.109a.764.764,0,0,1-.593-.274.723.723,0,0,1-.15-.623c1.508-6.374,1.177-13.334.563-19.926-.309-3.271-.481-5.025,2.019-5.256,2.578-.222,5.156-.327,7.713-.54C338.507,490.959,342.409,490.842,344.694,490.6Z" transform="translate(-206.098 -293.994)" fill="#fff" stroke="#33313f" stroke-linecap="round" stroke-miterlimit="10" stroke-width="3"/>
  <path id="Path_80" data-name="Path 80" d="M424.564,490.349a.7.7,0,0,0-.579.18.656.656,0,0,0-.2.558,80.971,80.971,0,0,1-.46,17.66c-.309,2.676-.735,5.495-1.946,7.484a.651.651,0,0,0,.18.867,1.837,1.837,0,0,0,1.091.268l19.125.109a.694.694,0,0,0,.544-.26.657.657,0,0,0,.122-.578c-1.525-6.395-1.2-13.38-.58-20,.305-3.271.481-5.026-2.019-5.256-2.578-.222-5.156-.327-7.734-.54C431.473,490.806,426.617,490.668,424.564,490.349Z" transform="translate(-259.499 -293.849)" fill="#fff" stroke="#33313f" stroke-miterlimit="10" stroke-width="3"/>
  <line id="Line_4" data-name="Line 4" x2="9.728" y2="12.648" transform="translate(127.206 200.307)" fill="#fff" stroke="#33313f" stroke-linecap="round" stroke-miterlimit="10" stroke-width="2"/>
  <line id="Line_5" data-name="Line 5" x1="9.406" y2="14.226" transform="translate(127.528 199.361)" fill="#fff" stroke="#33313f" stroke-linecap="round" stroke-miterlimit="10" stroke-width="2"/>
  <line id="Line_6" data-name="Line 6" x2="5.298" y2="6.889" transform="translate(170.616 200.902)" fill="#fff" stroke="#33313f" stroke-linecap="round" stroke-miterlimit="10" stroke-width="2"/>
  <line id="Line_7" data-name="Line 7" x1="5.122" y2="7.752" transform="translate(170.792 200.383)" fill="#fff" stroke="#33313f" stroke-linecap="round" stroke-miterlimit="10" stroke-width="2"/>
  <path id="Path_81" data-name="Path 81" d="M342.821,539.216a58.431,58.431,0,0,1,6.69.08.633.633,0,0,1,.567.544l.206,1.713a.259.259,0,0,1-.047.226.307.307,0,0,1-.163.042c-.937.025-1.878-.084-2.81,0-.58.042-1.152.151-1.719.214a21.044,21.044,0,0,1-2.862.05,14.722,14.722,0,0,1-3.979-.477c-.026,0,.077-1.416.077-1.554,0-.662-.026-.716.675-.737Z" transform="translate(-212.401 -322.22)" fill="none" stroke="#33313f" stroke-linecap="round" stroke-miterlimit="10" stroke-width="2"/>
  <path id="Path_82" data-name="Path 82" d="M437.937,524.117a57.513,57.513,0,0,1,6.69.084.624.624,0,0,1,.567.544l.206,1.709a.259.259,0,0,1-.047.226.245.245,0,0,1-.163.042c-.937.025-1.878-.084-2.81,0-.58.042-1.152.155-1.719.214a20.394,20.394,0,0,1-2.862.05,14.776,14.776,0,0,1-3.983-.477c-.021,0,.077-1.416.077-1.554,0-.662-.021-.716.679-.737Z" transform="translate(-266.646 -313.444)" fill="none" stroke="#33313f" stroke-linecap="round" stroke-miterlimit="10" stroke-width="2"/>
  <path id="Path_83" data-name="Path 83" d="M441.436,535.447a58.37,58.37,0,0,0-6.686.08.624.624,0,0,0-.567.544l-.2,1.709a.234.234,0,0,0,.047.226.241.241,0,0,0,.163.042c.937.025,1.873-.08,2.81,0,.58.042,1.152.155,1.719.218a21.747,21.747,0,0,0,2.862.05,14.734,14.734,0,0,0,3.983-.477c.021,0-.077-1.42-.077-1.554,0-.666.026-.72-.675-.737Z" transform="translate(-266.738 -320.029)" fill="none" stroke="#33313f" stroke-linecap="round" stroke-miterlimit="10" stroke-width="2"/>
  <path id="Path_84" data-name="Path 84" d="M386.63,527.936s6.321-.314,7.455,0" transform="translate(-239.737 -315.618)" fill="none" stroke="#33313f" stroke-miterlimit="10" stroke-width="3"/>
  <path id="Path_85" data-name="Path 85" d="M402.922,520.21s2.754,2.684,2.754,3.317-3.566,2.844-3.566,2.844" transform="translate(-248.565 -311.208)" fill="none" stroke="#33313f" stroke-miterlimit="10" stroke-width="3"/>
  <path id="Path_86" data-name="Path 86" d="M482.84,510.649s5.728-2.613,6.9-2.739" transform="translate(-294.607 -304.06)" fill="none" stroke="#33313f" stroke-miterlimit="10" stroke-width="3"/>
  <path id="Path_87" data-name="Path 87" d="M495.92,500.58s3.588,1.474,3.833,2.056-2.2,3.945-2.2,3.945" transform="translate(-302.067 -299.799)" fill="none" stroke="#33313f" stroke-miterlimit="10" stroke-width="3"/>
  <path id="Path_88" data-name="Path 88" d="M482.7,530.43s5.822,2.408,6.7,3.179" transform="translate(-294.527 -317.148)" fill="none" stroke="#33313f" stroke-miterlimit="10" stroke-width="3"/>
  <path id="Path_89" data-name="Path 89" d="M497.123,530.89s1.289,3.589.988,4.159-4.482,1.039-4.482,1.039" transform="translate(-300.761 -317.416)" fill="none" stroke="#33313f" stroke-miterlimit="10" stroke-width="3"/>
  <path id="Path_90" data-name="Path 90" d="M529.838,499a2.7,2.7,0,0,1,.185,1.457.209.209,0,0,1-.026.113.244.244,0,0,1-.18.063l-4.086.155s.232-1.173.262-1.256c.138-.477.5-.352.958-.377Z" transform="translate(-319.068 -298.881)" fill="#fff" stroke="#33313f" stroke-linecap="round" stroke-miterlimit="10" stroke-width="2"/>
  <path id="Path_91" data-name="Path 91" d="M310.18,562.131l1.444-1.311-1.289-.05-.675,1.009Z" transform="translate(-176.602 -325.921)" fill="#33313f"/>
  <path id="Path_92" data-name="Path 92" d="M286.7,572.351l1.53-1.914.339-.343,4.684-4.783,1.594-1.625.748-.088,1.074-1.039.632.54-1.044,1.189.017.624-1.628,1.721-4.6,4.866-.3.31-1.848,1.667Z" transform="translate(-163.508 -326.961)" fill="#65617d"/>
  <path id="Path_93" data-name="Path 93" d="M291.05,573.913l4.684-4.783,1.392,1.323-4.6,4.866Z" transform="translate(-165.988 -330.779)" fill="#33313f"/>
  <path id="Path_94" data-name="Path 94" d="M274.682,446.573a20.219,20.219,0,0,1-3.519-4.188c-2.062-3.133-5.508-4.824-7.872-5.666V435.7l.146-.029-.064-.946h.064l-.168-2.513v-.021h0l-.851-12.467a18.6,18.6,0,0,1,2.355-15.981c5.384-7.668.335-15.022-4.726-17.9,0,0-2.355-12.145-.335-15.022a88.427,88.427,0,0,0-8.456-4.167c-.047-.151-.086-.3-.125-.461-.056-1.131-.129-2.261-.193-3.392a12.064,12.064,0,0,1,.331-1.742c.064-.239.138-.477.215-.724a12.488,12.488,0,0,0,8.228-11.563,11.873,11.873,0,0,0-.8-4.288,5.319,5.319,0,0,0,.614-1.4,5.417,5.417,0,0,0-.8-3.987,15.121,15.121,0,0,0-7.154-6.483c-3.5-1.382-8.761-1.055-12.4-.628-2.045.239-4.378.9-5.117,2.73a18.621,18.621,0,0,0-.464,2.094c-.765,2.789-4.069,4.087-6.11,6.223-1.8,1.885-2.578,4.435-3.18,6.918a61.76,61.76,0,0,0-1.182,21.714c.206,1.675.481,3.329.773,4.988-1.229,1.675-2.337,4.636-1.83,9.779l-4.039,18.536-1.68,10.868a9.3,9.3,0,0,0,3.008,8.309,73.312,73.312,0,0,1,7.614,9.255,21.46,21.46,0,0,0-1.225,7.367c.043,1.139.107,2.241.189,3.288a28.383,28.383,0,0,0,1.289,6.55c.473,4.464,1.405,10.172,3.231,13.82l.67,19.495s-1.01,17.9-3.008,21.413,4.37,33.24,4.37,33.24v4.154L231.4,545.8l-.271-.2c-5.044,6.072,0,8.309,0,8.309s1.375.063,3.571.147a3.891,3.891,0,0,0,2.148,4.33s28.586,1.277,33.635,0,3.7-5.754,1.005-5.444a12.532,12.532,0,0,1-4.026-.511c1.568-1.78.314-4.188-1.689-3.962-2.69.318-8.744-2-8.744-2l-.03.038a4.6,4.6,0,0,0-.593-.176,68.681,68.681,0,0,1-6.656-1.813c-1.289-2.693-4.3-9.93-2.148-15.541a27.106,27.106,0,0,0,1.289-9.188,101.834,101.834,0,0,1,4.43-29.173l4.035-13.4s5.719-16.3,6.054-20.776l-.022-6.508c4.726,2.932,8.486,2.052,10.884.683a2.508,2.508,0,0,0,1.256-1.921A2.48,2.48,0,0,0,274.682,446.573Zm-44.888-33.922c.116-.469.211-.98.292-1.52.791,0,1.586,0,2.376-.025a11.539,11.539,0,0,1,1.194,6.282c-1.822-.549-4.546-1.893-3.863-4.716Z" transform="translate(-142.552 -201.598)" fill="url(#linear-gradient)"/>
  <path id="Path_95" data-name="Path 95" d="M253.529,828.472l-1.289,3.769,4.207,4.1,13.917,3.154,10.033-.947-.649-3.472h0a4.246,4.246,0,0,0-3.188-3.053c-4.125-.946-11.988-3.1-13.642-6.093Z" transform="translate(-163.091 -488.895)" fill="#db8b8b"/>
  <path id="Path_96" data-name="Path 96" d="M253.529,828.472l-1.289,3.769,4.207,4.1,13.917,3.154,10.033-.947-.649-3.472h0a4.246,4.246,0,0,0-3.188-3.053c-4.125-.946-11.988-3.1-13.642-6.093Z" transform="translate(-163.091 -488.895)" opacity="0.1"/>
  <path id="Path_97" data-name="Path 97" d="M274.287,845.047l-1.942-2.513,1.942-2.932s5.822,2.291,8.413,1.977,3.867,4.1-.971,5.361-32.363,0-32.363,0-4.855-2.207,0-8.2l4.207,3.154s7.12,3.769,10.682,3.154Z" transform="translate(-160.221 -496.34)" fill="#2e3037"/>
  <path id="Path_98" data-name="Path 98" d="M293.17,849.11l-10.033.946L269.219,846.9,265,842.8l.344-1,.481-1.407.473-1.378,9.384-2.513a5.73,5.73,0,0,0,1.9,1.855c3.046,2.031,8.525,3.5,11.739,4.234.133.034.271.071.4.117a4.2,4.2,0,0,1,2.789,2.932Z" transform="translate(-170.368 -495.039)" fill="#db8b8b"/>
  <path id="Path_99" data-name="Path 99" d="M293.17,856.462l-10.033.946-13.917-3.158-4.219-4.1.344-1,3.867,2.894s7.124,3.769,10.682,3.154h10.029l-1.942-2.513,1.744-2.626a4.2,4.2,0,0,1,2.789,2.932Z" transform="translate(-170.368 -502.391)" opacity="0.1"/>
  <path id="Path_100" data-name="Path 100" d="M287.057,855.6l-1.942-2.513,1.942-2.932s5.826,2.291,8.413,1.977,3.867,4.1-.967,5.365-32.368,0-32.368,0-4.855-2.211,0-8.2l4.207,3.154s7.124,3.769,10.682,3.158Z" transform="translate(-167.504 -502.472)" fill="#2e3037"/>
  <path id="Path_101" data-name="Path 101" d="M283.583,404.278s-15.533,1.575-13.268-4.732a11.036,11.036,0,0,0,.477-5.57,15.249,15.249,0,0,0-2.741-6.416l14.562,2.207a17.482,17.482,0,0,0-1.972,4.556C278.9,401.02,283.583,404.278,283.583,404.278Z" transform="translate(-172.108 -234.111)" fill="#db8b8b"/>
  <path id="Path_102" data-name="Path 102" d="M242.44,599.21s.322,13.565,3.558,20.19l.649,19.239s-.971,17.669-2.913,21.136,4.207,32.808,4.207,32.808v5.046S258.3,701.4,261.208,697L258.3,659.462l1.289-52.047Z" transform="translate(-157.502 -357.124)" fill="#35323e"/>
  <path id="Path_103" data-name="Path 103" d="M242.43,599.21s.322,13.565,3.558,20.19l.649,19.239s-.971,17.669-2.913,21.136,4.207,32.808,4.207,32.808v5.046S258.285,701.4,261.2,697l-2.913-37.536,1.289-52.047Z" transform="translate(-157.496 -357.124)" opacity="0.1"/>
  <path id="Path_104" data-name="Path 104" d="M222.518,495.27l-1.942,5.046-1.616,10.725a9.345,9.345,0,0,0,2.913,8.2c3.867,3.769,9.062,11.672,9.062,11.672l6.149-17.979s-6.149-.946-5.156-5.046.645-11.672.645-11.672Z" transform="translate(-144.055 -296.713)" fill="#d99519"/>
  <path id="Path_105" data-name="Path 105" d="M278.71,838.347c-4.155,6.37-10.613,2.76-11.76,2.044l.473-1.378,9.384-2.513A5.732,5.732,0,0,0,278.71,838.347Z" transform="translate(-171.48 -495.039)" opacity="0.1"/>
  <path id="Path_106" data-name="Path 106" d="M276.42,580c-.327,4.414-5.826,20.521-5.826,20.521l-3.867,13.238a102.765,102.765,0,0,0-4.288,28.779A27.445,27.445,0,0,1,261.2,651.6c-2.578,6.939,2.578,16.4,2.578,16.4-4.529,7.886-12.3,2.513-12.3,2.513v-5.026s-6.131-27.456-4.512-32.817,2.269-19.876,2.269-19.876V586.62a29.37,29.37,0,0,1-8.881-18.846c-.077-1.034-.142-2.119-.18-3.246-.262-7.119,4.726-15.462,6.677-18.427.473-.72.765-1.122.765-1.122l28.569,11.048.064.025v3.463Z" transform="translate(-156.205 -325.605)" fill="#35323e"/>
  <path id="Path_107" data-name="Path 107" d="M282.612,389.767a17.484,17.484,0,0,0-1.972,4.556,12.943,12.943,0,0,1-9.848-.348,15.249,15.249,0,0,0-2.741-6.416Z" transform="translate(-172.108 -234.111)" opacity="0.1"/>
  <ellipse id="Ellipse_5" data-name="Ellipse 5" cx="12.624" cy="12.304" rx="12.624" ry="12.304" transform="translate(91.409 135.78)" fill="#db8b8b"/>
  <path id="Path_108" data-name="Path 108" d="M283.739,559.491l-.142.025c-13.569,2.718-30.6-11.064-30.6-11.064a15.75,15.75,0,0,0,1.177-2.349c.473-.72.765-1.122.765-1.122l28.565,11.048.073,1.1Z" transform="translate(-163.524 -325.605)" opacity="0.1"/>
  <path id="Path_109" data-name="Path 109" d="M263,416.492s-18.124-10.725-23.95-6.311l-8.091,10.093s-5.178,1.579-4.207,11.672l-3.867,18.3,11.649,2.839s6.8,6.307,1.289,15.458c0,0,17.153,13.879,30.748,11.039l-.98-14.813a18.778,18.778,0,0,1,2.264-15.772c5.178-7.568.322-14.825-4.529-17.665C263.327,431.318,261.063,419.327,263,416.492Z" transform="translate(-146.352 -246.639)" fill="#d99519"/>
  <path id="Path_110" data-name="Path 110" d="M314.1,580.38s6.8,1.256,10.033,6.311a19.719,19.719,0,0,0,3.39,4.125,2.478,2.478,0,0,1,.815,2.091,2.507,2.507,0,0,1-1.219,1.9c-2.578,1.508-6.755,2.433-12.031-1.8C306.012,585.745,314.1,580.38,314.1,580.38Z" transform="translate(-196.479 -346.18)" fill="#db8b8b"/>
  <path id="Path_111" data-name="Path 111" d="M278.393,440.674s-6.471-.632-8.091,15.772-4.207,20.186-4.207,20.186-1.62,8.518,2.264,13.565,11.326,15.809,11.326,15.809,8.1,2.211,9.711-5.679l-10.033-18.293s-1.616-6.311,2.264-10.725S288.426,437.534,278.393,440.674Z" transform="translate(-170.802 -264.845)" opacity="0.1"/>
  <path id="Path_112" data-name="Path 112" d="M279.9,438.451s-6.475-.632-8.091,15.772-4.207,20.186-4.207,20.186-1.62,8.527,2.264,13.552S281.2,503.732,281.2,503.732s8.091,2.211,9.711-5.675l-10.033-18.3s-1.62-6.311,2.264-10.725S289.927,435.293,279.9,438.451Z" transform="translate(-171.663 -263.551)" fill="#d99519"/>
  <path id="Path_113" data-name="Path 113" d="M303.189,467s.645,9.779-2.269,15.144-2.913,12.3,0,16.086" transform="translate(-189.608 -280.282)" opacity="0.1"/>
  <path id="Path_114" data-name="Path 114" d="M285.37,430.972s-2.578-2.513-10.033-2.839-10.677-2.513-10.677-2.513" transform="translate(-170.174 -256.232)" opacity="0.1"/>
  <path id="Path_115" data-name="Path 115" d="M244.1,336.284c-1.968.235-4.215.892-4.924,2.7a18.128,18.128,0,0,0-.451,2.094c-.735,2.756-3.914,4.037-5.878,6.144a14.632,14.632,0,0,0-3.059,6.826,62.542,62.542,0,0,0-1.156,21.417c.632,5.231,1.921,10.378,2.286,15.633s-.3,10.784-3.248,15.2c-1.289,1.9-2.939,3.568-3.837,5.658,1.856,1.466,4.417,1.675,6.806,1.755q4.176.138,8.353,0a9.106,9.106,0,0,0,4.245-.863,6.481,6.481,0,0,0,2.23-2.328,16.331,16.331,0,0,0,1.925-8.857c-.069-3.057-.563-6.093-.623-9.151a7.831,7.831,0,0,1,1.087-4.8,15.88,15.88,0,0,1,2.711-2.446c3.467-2.99,4.653-7.79,4.769-12.3s-.645-9.029-.253-13.523c.15-1.763.825-3.874,2.6-4.217a9.4,9.4,0,0,0,1.689-.209c1.427-.532,1.289-2.492,1.693-3.924.46-1.612,1.869-2.856,2.264-4.481.932-3.815-4.052-8.376-7.3-9.7C252.653,335.534,247.587,335.865,244.1,336.284Z" transform="translate(-146.888 -204.097)" opacity="0.1"/>
  <path id="Path_116" data-name="Path 116" d="M243.359,334.785c-1.968.235-4.215.892-4.924,2.693a18.838,18.838,0,0,0-.43,2.094c-.735,2.756-3.919,4.037-5.882,6.148a14.6,14.6,0,0,0-3.059,6.826,62.622,62.622,0,0,0-1.134,21.43c.632,5.231,1.921,10.382,2.282,15.634s-.3,10.784-3.244,15.2c-1.289,1.9-2.939,3.568-3.837,5.658,1.856,1.47,4.417,1.675,6.806,1.755q4.176.138,8.353,0a9.055,9.055,0,0,0,4.245-.863,6.4,6.4,0,0,0,2.226-2.328,16.334,16.334,0,0,0,1.929-8.857c-.064-3.057-.567-6.093-.623-9.151a7.838,7.838,0,0,1,1.083-4.8,15.726,15.726,0,0,1,2.716-2.446c3.463-2.994,4.653-7.794,4.769-12.3s-.649-9.029-.258-13.523c.155-1.759.829-3.874,2.6-4.213a9.039,9.039,0,0,0,1.693-.214c1.427-.532,1.289-2.488,1.693-3.924.455-1.612,1.865-2.852,2.264-4.477.932-3.819-4.052-8.376-7.3-9.7C251.927,334.04,246.865,334.362,243.359,334.785Z" transform="translate(-146.489 -203.227)" fill="#35323e"/>
</svg>
