<svg id="InfoGatheringIllust" xmlns="http://www.w3.org/2000/svg" xmlns:xlink="http://www.w3.org/1999/xlink" width="357.581" height="335" viewBox="0 0 357.581 335">
  <defs>
    <linearGradient id="linear-gradient" y1="0.5" x2="1" y2="0.5" gradientUnits="objectBoundingBox">
      <stop offset="0" stop-color="gray" stop-opacity="0.251"/>
      <stop offset="0.54" stop-color="gray" stop-opacity="0.122"/>
      <stop offset="1" stop-color="gray" stop-opacity="0.102"/>
    </linearGradient>
    <linearGradient id="linear-gradient-8" x1="0.5" y1="1" x2="0.5" y2="0" xlink:href="#linear-gradient"/>
    <linearGradient id="linear-gradient-10" x1="0" y1="0.5" y2="0.5" xlink:href="#linear-gradient"/>
    <linearGradient id="linear-gradient-21" x1="0.5" y1="1" x2="0.5" y2="0" xlink:href="#linear-gradient"/>
    <linearGradient id="linear-gradient-26" x1="0" y1="0.5" y2="0.5" xlink:href="#linear-gradient"/>
    <linearGradient id="linear-gradient-44" x1="0" y1="0.5" y2="0.5" xlink:href="#linear-gradient"/>
    <linearGradient id="linear-gradient-49" x1="0.5" y1="1" x2="0.5" y2="0" xlink:href="#linear-gradient"/>
    <linearGradient id="linear-gradient-50" x1="0" y1="0.5" y2="0.5" xlink:href="#linear-gradient"/>
    <linearGradient id="linear-gradient-51" x1="0.5" y1="0.999" x2="0.5" y2="-0.002" xlink:href="#linear-gradient"/>
    <linearGradient id="linear-gradient-52" x1="0" y1="0.5" y2="0.5" xlink:href="#linear-gradient"/>
    <linearGradient id="linear-gradient-53" x1="0.001" y1="0.501" y2="0.501" xlink:href="#linear-gradient"/>
    <linearGradient id="linear-gradient-58" x1="0" y1="0.5" y2="0.5" xlink:href="#linear-gradient"/>
    <linearGradient id="linear-gradient-60" x1="0" y1="0.5" y2="0.5" xlink:href="#linear-gradient"/>
    <linearGradient id="linear-gradient-61" x1="0" y1="0.498" y2="0.498" xlink:href="#linear-gradient"/>
    <linearGradient id="linear-gradient-62" x1="0" y1="0.498" y2="0.498" xlink:href="#linear-gradient"/>
    <linearGradient id="linear-gradient-64" x1="0" y1="0.502" y2="0.502" xlink:href="#linear-gradient"/>
    <linearGradient id="linear-gradient-65" x1="0" y1="0.502" y2="0.502" xlink:href="#linear-gradient"/>
    <linearGradient id="linear-gradient-67" x1="0" y1="0.5" y2="0.5" xlink:href="#linear-gradient"/>
    <linearGradient id="linear-gradient-70" x1="0" y1="0.499" y2="0.499" xlink:href="#linear-gradient"/>
    <linearGradient id="linear-gradient-71" x1="0" y1="0.501" y2="0.501" xlink:href="#linear-gradient"/>
    <linearGradient id="linear-gradient-86" x1="0.5" y1="1.002" x2="0.5" y2="0.003" xlink:href="#linear-gradient"/>
    <linearGradient id="linear-gradient-88" x1="0.5" y1="1" x2="0.5" y2="0" xlink:href="#linear-gradient"/>
  </defs>
  <g id="Group_43" data-name="Group 43" transform="translate(0 56.391)" opacity="0.7">
    <path id="Path_4" data-name="Path 4" d="M484.328,333.681,366.37,308.13V508.109l117.958-27.773Z" transform="translate(-187.886 -229.5)" fill="url(#linear-gradient)"/>
    <g id="Group_23" data-name="Group 23" transform="translate(178.484 78.63)" opacity="0.1">
      <path id="Path_5" data-name="Path 5" d="M484.328,333.681,366.37,308.13V508.109l117.958-27.773Z" transform="translate(-366.37 -308.13)" fill="url(#linear-gradient)"/>
    </g>
    <path id="Path_6" data-name="Path 6" d="M124.23,333.681,242.193,308.13V508.109L124.23,480.888Z" transform="translate(-63.709 -229.5)" fill="url(#linear-gradient)"/>
    <g id="Group_24" data-name="Group 24" transform="translate(60.521 78.63)" opacity="0.17">
      <path id="Path_7" data-name="Path 7" d="M124.23,333.681,242.193,308.13V508.109L124.23,480.888Z" transform="translate(-124.23 -308.13)" fill="url(#linear-gradient)"/>
    </g>
    <path id="Path_8" data-name="Path 8" d="M366.37,249.73l61.14-45.55L545.468,231.4l-61.14,43.881Z" transform="translate(-187.886 -171.101)" fill="url(#linear-gradient)"/>
    <path id="Path_9" data-name="Path 9" d="M0,231.953l60.521,43.329L178.484,249.73l-59.907-45.55Z" transform="translate(0 -171.101)" fill="url(#linear-gradient)"/>
    <g id="Group_25" data-name="Group 25" transform="translate(0 33.079)" opacity="0.05">
      <path id="Path_10" data-name="Path 10" d="M0,231.953l60.521,43.329L178.484,249.73l-59.907-45.55Z" transform="translate(0 -204.18)" fill="url(#linear-gradient)"/>
    </g>
    <g id="Group_26" data-name="Group 26" transform="translate(90.993 55.515)" opacity="0.5">
      <rect id="Rectangle_16" data-name="Rectangle 16" width="87.554" height="72.661" rx="4.5" fill="url(#linear-gradient-8)"/>
    </g>
    <rect id="Rectangle_17" data-name="Rectangle 17" width="85.537" height="70.9" rx="4.5" transform="translate(92.06 56.076)" fill="url(#linear-gradient)"/>
    <rect id="Rectangle_18" data-name="Rectangle 18" width="14.425" height="11.678" rx="4.5" transform="translate(98.651 67.754)" fill="url(#linear-gradient-10)"/>
    <rect id="Rectangle_19" data-name="Rectangle 19" width="57.345" height="1.297" rx="0.649" transform="translate(117.403 67.754)" fill="url(#linear-gradient)"/>
    <rect id="Rectangle_20" data-name="Rectangle 20" width="57.345" height="1.297" rx="0.649" transform="translate(117.403 71.645)" fill="url(#linear-gradient)"/>
    <rect id="Rectangle_21" data-name="Rectangle 21" width="77.538" height="1.297" rx="0.649" transform="translate(97.209 85.777)" fill="url(#linear-gradient)"/>
    <rect id="Rectangle_22" data-name="Rectangle 22" width="77.538" height="1.297" rx="0.649" transform="translate(97.209 89.668)" fill="url(#linear-gradient)"/>
    <rect id="Rectangle_23" data-name="Rectangle 23" width="77.538" height="1.297" rx="0.649" transform="translate(97.209 94.856)" fill="url(#linear-gradient)"/>
    <rect id="Rectangle_24" data-name="Rectangle 24" width="44.717" height="1.297" rx="0.649" transform="translate(97.209 98.752)" fill="url(#linear-gradient)"/>
    <rect id="Rectangle_25" data-name="Rectangle 25" width="77.538" height="1.297" rx="0.649" transform="translate(97.209 103.927)" fill="url(#linear-gradient)"/>
    <rect id="Rectangle_26" data-name="Rectangle 26" width="77.538" height="1.297" rx="0.649" transform="translate(97.209 107.818)" fill="url(#linear-gradient)"/>
    <rect id="Rectangle_27" data-name="Rectangle 27" width="77.538" height="1.297" rx="0.649" transform="translate(97.209 113.01)" fill="url(#linear-gradient)"/>
    <rect id="Rectangle_28" data-name="Rectangle 28" width="44.717" height="1.297" rx="0.649" transform="translate(97.209 116.902)" fill="url(#linear-gradient)"/>
    <g id="Group_27" data-name="Group 27" transform="translate(104.205 72.302)" opacity="0.5">
      <rect id="Rectangle_29" data-name="Rectangle 29" width="87.554" height="72.661" rx="4.5" fill="url(#linear-gradient-21)"/>
    </g>
    <rect id="Rectangle_30" data-name="Rectangle 30" width="85.537" height="70.9" rx="4.5" transform="translate(105.272 72.867)" fill="url(#linear-gradient)"/>
    <rect id="Rectangle_31" data-name="Rectangle 31" width="14.425" height="11.678" rx="4.5" transform="translate(111.863 84.545)" fill="url(#linear-gradient-10)"/>
    <rect id="Rectangle_32" data-name="Rectangle 32" width="57.345" height="1.297" rx="0.649" transform="translate(130.619 84.545)" fill="url(#linear-gradient)"/>
    <rect id="Rectangle_33" data-name="Rectangle 33" width="57.345" height="1.297" rx="0.649" transform="translate(130.619 88.437)" fill="url(#linear-gradient)"/>
    <rect id="Rectangle_34" data-name="Rectangle 34" width="77.538" height="1.297" rx="0.649" transform="translate(110.421 102.564)" fill="url(#linear-gradient-26)"/>
    <rect id="Rectangle_35" data-name="Rectangle 35" width="77.538" height="1.297" rx="0.649" transform="translate(110.421 106.459)" fill="url(#linear-gradient-26)"/>
    <rect id="Rectangle_36" data-name="Rectangle 36" width="77.538" height="1.297" rx="0.649" transform="translate(110.421 111.648)" fill="url(#linear-gradient-26)"/>
    <rect id="Rectangle_37" data-name="Rectangle 37" width="44.717" height="1.297" rx="0.649" transform="translate(110.421 115.539)" fill="url(#linear-gradient)"/>
    <rect id="Rectangle_38" data-name="Rectangle 38" width="77.538" height="1.297" rx="0.649" transform="translate(110.421 120.718)" fill="url(#linear-gradient-26)"/>
    <rect id="Rectangle_39" data-name="Rectangle 39" width="77.538" height="1.297" rx="0.649" transform="translate(110.421 124.609)" fill="url(#linear-gradient-26)"/>
    <rect id="Rectangle_40" data-name="Rectangle 40" width="77.538" height="1.297" rx="0.649" transform="translate(110.421 129.802)" fill="url(#linear-gradient-26)"/>
    <rect id="Rectangle_41" data-name="Rectangle 41" width="44.717" height="1.297" rx="0.649" transform="translate(110.421 133.693)" fill="url(#linear-gradient)"/>
    <g id="Group_28" data-name="Group 28" transform="translate(155.119 81.706)" opacity="0.5">
      <rect id="Rectangle_42" data-name="Rectangle 42" width="75.862" height="80.172" fill="url(#linear-gradient-21)"/>
    </g>
    <rect id="Rectangle_43" data-name="Rectangle 43" width="71.916" height="77.109" transform="translate(157.453 82.998)" fill="url(#linear-gradient)"/>
    <g id="Group_29" data-name="Group 29" transform="translate(184.008 93.322)" opacity="0.5">
      <path id="Path_11" data-name="Path 11" d="M624.029,411.347V409.41H616.21v1.937h-5.5v9.513h18.8v-9.513Zm-6.845-1.24h5.846v1.231h-5.846Z" transform="translate(-610.71 -409.41)" fill="url(#linear-gradient-21)"/>
    </g>
    <rect id="Rectangle_44" data-name="Rectangle 44" width="17.217" height="8.711" transform="translate(184.802 95.579)" fill="url(#linear-gradient)"/>
    <path id="Path_12" data-name="Path 12" d="M389.65,342.76v2.261h.9v-1.613h5.378v1.613h.9V342.76Z" transform="translate(-199.825 -248.956)" fill="url(#linear-gradient)"/>
    <rect id="Rectangle_45" data-name="Rectangle 45" width="50.573" height="1.937" transform="translate(168.214 116.827)" fill="url(#linear-gradient)"/>
    <rect id="Rectangle_46" data-name="Rectangle 46" width="50.573" height="1.937" transform="translate(168.214 129.57)" fill="url(#linear-gradient)"/>
    <rect id="Rectangle_47" data-name="Rectangle 47" width="50.573" height="1.937" transform="translate(168.214 132.957)" fill="url(#linear-gradient)"/>
    <rect id="Rectangle_48" data-name="Rectangle 48" width="21.343" height="1.937" transform="translate(168.214 126.183)" fill="url(#linear-gradient)"/>
    <g id="Group_30" data-name="Group 30" transform="translate(202.827 126.183)" opacity="0.6">
      <rect id="Rectangle_49" data-name="Rectangle 49" width="15.96" height="1.937" fill="url(#linear-gradient)"/>
    </g>
    <rect id="Rectangle_50" data-name="Rectangle 50" width="15.96" height="1.937" transform="translate(185.966 140.862)" fill="url(#linear-gradient-44)"/>
    <path id="Path_13" data-name="Path 13" d="M124.23,366.44V513.647l117.963,27.221V394.774Z" transform="translate(-63.709 -262.259)" fill="url(#linear-gradient)"/>
    <path id="Path_14" data-name="Path 14" d="M484.328,513.1,366.37,540.868V394.774L484.328,366.44Z" transform="translate(-187.886 -262.259)" fill="url(#linear-gradient)"/>
    <g id="Group_31" data-name="Group 31" transform="translate(178.484 104.181)" opacity="0.07">
      <path id="Path_15" data-name="Path 15" d="M484.328,513.1,366.37,540.868V394.774L484.328,366.44Z" transform="translate(-366.37 -366.44)" fill="url(#linear-gradient)"/>
    </g>
    <g id="Group_32" data-name="Group 32" transform="translate(249.503 190.286)" opacity="0.07">
      <path id="Path_16" data-name="Path 16" d="M512.15,574.6v48.328l46.939-11.665V562.94Z" transform="translate(-512.15 -562.94)" fill="url(#linear-gradient)"/>
    </g>
    <rect id="Rectangle_51" data-name="Rectangle 51" width="34.789" height="30.065" transform="translate(234.708 91.903)" fill="url(#linear-gradient-49)"/>
    <rect id="Rectangle_52" data-name="Rectangle 52" width="33.697" height="28.715" transform="translate(235.253 92.639)" fill="url(#linear-gradient-50)"/>
    <g id="Group_33" data-name="Group 33" transform="translate(244.948 96.21)" opacity="0.5">
      <path id="Path_17" data-name="Path 17" d="M745.933,417.464V416h-5.958v1.472H735.8v7.239h14.308v-7.248Zm-5.213-.938h4.472v.938H740.72Z" transform="translate(-735.8 -416)" fill="url(#linear-gradient-51)"/>
    </g>
    <g id="Group_34" data-name="Group 34" transform="translate(245.552 97.919)" opacity="0.6">
      <rect id="Rectangle_53" data-name="Rectangle 53" width="13.095" height="6.626" fill="url(#linear-gradient-52)"/>
    </g>
    <g id="Group_35" data-name="Group 35" transform="translate(249.371 96.565)" opacity="0.6">
      <path id="Path_18" data-name="Path 18" d="M511.88,349.06v1.722h.687v-1.227h4.092v1.227h.682V349.06Z" transform="translate(-511.88 -349.06)" fill="url(#linear-gradient-53)"/>
    </g>
    <g id="Group_36" data-name="Group 36" transform="translate(246.302 109.698)" opacity="0.6">
      <rect id="Rectangle_54" data-name="Rectangle 54" width="12.14" height="1.472" fill="url(#linear-gradient-52)"/>
    </g>
    <rect id="Rectangle_55" data-name="Rectangle 55" width="20.739" height="1.472" transform="translate(241.733 112.397)" fill="url(#linear-gradient)"/>
    <g id="Group_37" data-name="Group 37" transform="translate(152.235)" opacity="0.5">
      <rect id="Rectangle_56" data-name="Rectangle 56" width="45.073" height="33.303" fill="url(#linear-gradient-49)"/>
    </g>
    <rect id="Rectangle_57" data-name="Rectangle 57" width="43.938" height="32.12" transform="translate(152.761 0.631)" fill="url(#linear-gradient)"/>
    <rect id="Rectangle_58" data-name="Rectangle 58" width="43.938" height="7.164" transform="translate(152.761 0.631)" fill="url(#linear-gradient-58)"/>
    <g id="Group_38" data-name="Group 38" transform="translate(152.761 0.631)" opacity="0.1">
      <rect id="Rectangle_59" data-name="Rectangle 59" width="43.938" height="7.164" fill="url(#linear-gradient-58)"/>
    </g>
    <rect id="Rectangle_60" data-name="Rectangle 60" width="36.937" height="4.172" transform="translate(156.264 10.394)" fill="url(#linear-gradient-60)"/>
    <rect id="Rectangle_61" data-name="Rectangle 61" width="26.96" height="1.415" transform="translate(156.264 17.716)" fill="url(#linear-gradient-61)"/>
    <rect id="Rectangle_62" data-name="Rectangle 62" width="17.504" height="1.415" transform="translate(156.264 20.157)" fill="url(#linear-gradient-62)"/>
    <rect id="Rectangle_63" data-name="Rectangle 63" width="23.106" height="1.415" transform="translate(156.264 22.598)" fill="url(#linear-gradient-62)"/>
    <rect id="Rectangle_64" data-name="Rectangle 64" width="26.96" height="1.415" transform="translate(156.264 25.034)" fill="url(#linear-gradient-64)"/>
    <rect id="Rectangle_65" data-name="Rectangle 65" width="9.013" height="1.415" transform="translate(156.264 27.475)" fill="url(#linear-gradient-65)"/>
    <g id="Group_39" data-name="Group 39" transform="translate(218.504 25.008)" opacity="0.5">
      <rect id="Rectangle_66" data-name="Rectangle 66" width="55.868" height="41.274" fill="url(#linear-gradient-21)"/>
    </g>
    <rect id="Rectangle_67" data-name="Rectangle 67" width="54.46" height="39.81" transform="translate(219.157 25.788)" fill="url(#linear-gradient-67)"/>
    <rect id="Rectangle_68" data-name="Rectangle 68" width="54.46" height="8.878" transform="translate(219.157 25.788)" fill="url(#linear-gradient-60)"/>
    <rect id="Rectangle_69" data-name="Rectangle 69" width="45.779" height="5.171" transform="translate(223.493 37.886)" fill="url(#linear-gradient)"/>
    <rect id="Rectangle_70" data-name="Rectangle 70" width="33.415" height="1.757" transform="translate(223.493 46.961)" fill="url(#linear-gradient-70)"/>
    <rect id="Rectangle_71" data-name="Rectangle 71" width="21.698" height="1.757" transform="translate(223.493 49.985)" fill="url(#linear-gradient-71)"/>
    <rect id="Rectangle_72" data-name="Rectangle 72" width="28.641" height="1.757" transform="translate(223.493 53.013)" fill="url(#linear-gradient-70)"/>
    <rect id="Rectangle_73" data-name="Rectangle 73" width="33.415" height="1.757" transform="translate(223.493 56.036)" fill="url(#linear-gradient-70)"/>
    <rect id="Rectangle_74" data-name="Rectangle 74" width="11.176" height="1.757" transform="translate(223.493 59.06)" fill="url(#linear-gradient-71)"/>
    <rect id="Rectangle_75" data-name="Rectangle 75" width="13.017" height="1.56" transform="translate(225.88 39.643)" fill="url(#linear-gradient)"/>
    <g id="Group_40" data-name="Group 40" transform="translate(58.981 106.126)" opacity="0.1">
      <path id="Path_19" data-name="Path 19" d="M121.07,445.316l66.079,15L240.26,421.43V397.544L122.3,370.88Z" transform="translate(-121.07 -370.88)" fill="url(#linear-gradient)"/>
    </g>
    <g id="Group_41" data-name="Group 41" transform="translate(178.172 106.126)" opacity="0.1">
      <path id="Path_20" data-name="Path 20" d="M484.925,445.316l-66.084,15L365.73,421.43V397.544L483.688,370.88Z" transform="translate(-365.73 -370.88)" fill="url(#linear-gradient)"/>
    </g>
    <path id="Path_21" data-name="Path 21" d="M60.521,366.44,0,411.438,117.958,438.1l60.526-43.329Z" transform="translate(0 -262.259)" fill="url(#linear-gradient)"/>
    <path id="Path_22" data-name="Path 22" d="M484.328,366.44l61.14,45L428.128,438.1,366.37,394.774Z" transform="translate(-187.886 -262.259)" fill="url(#linear-gradient)"/>
    <g id="Group_42" data-name="Group 42" transform="translate(178.484 104.181)" opacity="0.07">
      <path id="Path_23" data-name="Path 23" d="M484.328,366.44l61.14,45L428.128,438.1,366.37,394.774Z" transform="translate(-366.37 -366.44)" fill="url(#linear-gradient)"/>
    </g>
  </g>
  <path id="Path_24" data-name="Path 24" d="M485.829,330.876,368.88,305.54V503.81l116.949-27.536Z" transform="translate(-189.174 -171.654)" fill="#535461"/>
  <path id="Path_25" data-name="Path 25" d="M485.829,330.876,368.88,305.54V503.81l116.949-27.536Z" transform="translate(-189.174 -171.654)" opacity="0.1"/>
  <path id="Path_26" data-name="Path 26" d="M128.83,330.876,245.775,305.54V503.81L128.83,476.822Z" transform="translate(-66.068 -171.654)" fill="#535461"/>
  <path id="Path_27" data-name="Path 27" d="M128.83,328.876,245.775,303.54V502.686L128.83,475.7Z" transform="translate(-66.068 -170.53)" opacity="0.17"/>
  <path id="Path_28" data-name="Path 28" d="M366.88,248.517l61.593-46.037,116.949,26.988-61.592,44.385Z" transform="translate(-188.148 -113.754)" fill="#535461"/>
  <path id="Path_29" data-name="Path 29" d="M7.66,232.016l60,42.961L184.609,249.64l-59.391-45.16Z" transform="translate(-3.928 -114.878)" fill="#535461"/>
  <path id="Path_30" data-name="Path 30" d="M5.66,230.016l61.466,43.837,116.945-25.336L123.218,202.48Z" transform="translate(-2.903 -113.754)" opacity="0.05"/>
  <g id="Group_44" data-name="Group 44" transform="translate(92.966 110.968)" opacity="0.5">
    <rect id="Rectangle_76" data-name="Rectangle 76" width="86.804" height="72.039" rx="4.5" fill="url(#linear-gradient-21)"/>
  </g>
  <rect id="Rectangle_77" data-name="Rectangle 77" width="84.801" height="70.291" rx="4.5" transform="translate(94.028 111.529)" fill="#f5f5f5"/>
  <rect id="Rectangle_78" data-name="Rectangle 78" width="14.303" height="11.577" rx="4.5" transform="translate(100.561 123.106)" fill="#d99519"/>
  <rect id="Rectangle_79" data-name="Rectangle 79" width="56.852" height="1.288" rx="0.644" transform="translate(119.156 123.106)" fill="#e0e0e0"/>
  <rect id="Rectangle_80" data-name="Rectangle 80" width="56.852" height="1.288" rx="0.644" transform="translate(119.156 126.963)" fill="#e0e0e0"/>
  <rect id="Rectangle_81" data-name="Rectangle 81" width="76.875" height="1.288" rx="0.644" transform="translate(99.134 140.972)" fill="#e0e0e0"/>
  <rect id="Rectangle_82" data-name="Rectangle 82" width="76.875" height="1.288" rx="0.644" transform="translate(99.134 144.832)" fill="#e0e0e0"/>
  <rect id="Rectangle_83" data-name="Rectangle 83" width="76.875" height="1.288" rx="0.644" transform="translate(99.134 149.977)" fill="#e0e0e0"/>
  <rect id="Rectangle_84" data-name="Rectangle 84" width="44.337" height="1.288" rx="0.644" transform="translate(99.134 153.837)" fill="#e0e0e0"/>
  <rect id="Rectangle_85" data-name="Rectangle 85" width="76.875" height="1.288" rx="0.644" transform="translate(99.134 158.968)" fill="#e0e0e0"/>
  <rect id="Rectangle_86" data-name="Rectangle 86" width="76.875" height="1.288" rx="0.644" transform="translate(99.134 162.829)" fill="#e0e0e0"/>
  <rect id="Rectangle_87" data-name="Rectangle 87" width="76.875" height="1.288" rx="0.644" transform="translate(99.134 167.973)" fill="#e0e0e0"/>
  <rect id="Rectangle_88" data-name="Rectangle 88" width="44.337" height="1.288" rx="0.644" transform="translate(99.134 171.834)" fill="#e0e0e0"/>
  <g id="Group_45" data-name="Group 45" transform="translate(106.066 127.616)" opacity="0.5">
    <rect id="Rectangle_89" data-name="Rectangle 89" width="86.804" height="72.039" rx="4.5" fill="url(#linear-gradient-49)"/>
  </g>
  <rect id="Rectangle_90" data-name="Rectangle 90" width="84.801" height="70.291" rx="4.5" transform="translate(107.128 128.176)" fill="#fff"/>
  <rect id="Rectangle_91" data-name="Rectangle 91" width="14.303" height="11.577" rx="4.5" transform="translate(113.661 139.753)" fill="#d99519"/>
  <rect id="Rectangle_92" data-name="Rectangle 92" width="56.852" height="1.288" rx="0.644" transform="translate(132.256 139.753)" fill="#e0e0e0"/>
  <rect id="Rectangle_93" data-name="Rectangle 93" width="56.852" height="1.288" rx="0.644" transform="translate(132.256 143.61)" fill="#e0e0e0"/>
  <rect id="Rectangle_94" data-name="Rectangle 94" width="76.875" height="1.288" rx="0.644" transform="translate(112.234 157.619)" fill="#e0e0e0"/>
  <rect id="Rectangle_95" data-name="Rectangle 95" width="76.875" height="1.288" rx="0.644" transform="translate(112.234 161.479)" fill="#e0e0e0"/>
  <rect id="Rectangle_96" data-name="Rectangle 96" width="76.875" height="1.288" rx="0.644" transform="translate(112.234 166.624)" fill="#e0e0e0"/>
  <rect id="Rectangle_97" data-name="Rectangle 97" width="44.337" height="1.288" rx="0.644" transform="translate(112.234 170.484)" fill="#e0e0e0"/>
  <rect id="Rectangle_98" data-name="Rectangle 98" width="76.875" height="1.288" rx="0.644" transform="translate(112.234 175.615)" fill="#e0e0e0"/>
  <rect id="Rectangle_99" data-name="Rectangle 99" width="76.875" height="1.288" rx="0.644" transform="translate(112.234 179.476)" fill="#e0e0e0"/>
  <rect id="Rectangle_100" data-name="Rectangle 100" width="76.875" height="1.288" rx="0.644" transform="translate(112.234 184.62)" fill="#e0e0e0"/>
  <rect id="Rectangle_101" data-name="Rectangle 101" width="44.337" height="1.288" rx="0.644" transform="translate(112.234 188.481)" fill="#e0e0e0"/>
  <g id="Group_46" data-name="Group 46" transform="translate(156.546 136.94)" opacity="0.5">
    <rect id="Rectangle_102" data-name="Rectangle 102" width="75.214" height="79.484" fill="url(#linear-gradient-21)"/>
  </g>
  <rect id="Rectangle_103" data-name="Rectangle 103" width="71.302" height="76.447" transform="translate(158.86 138.22)" fill="#fff"/>
  <g id="Group_47" data-name="Group 47" transform="translate(185.187 148.452)" opacity="0.5">
    <path id="Path_31" data-name="Path 31" d="M626.337,408.454V406.53h-7.77v1.924H613.13v9.434h18.644v-9.434Zm-6.82-1.223h5.846v1.223h-5.846Z" transform="translate(-613.13 -406.53)" fill="url(#linear-gradient-49)"/>
  </g>
  <rect id="Rectangle_104" data-name="Rectangle 104" width="17.07" height="8.637" transform="translate(185.976 150.695)" fill="#d99519"/>
  <path id="Path_32" data-name="Path 32" d="M391.97,339.88v2.239h.887v-1.6h5.334v1.6h.892V339.88Z" transform="translate(-201.015 -190.946)" fill="#d99519"/>
  <rect id="Rectangle_105" data-name="Rectangle 105" width="50.139" height="1.919" transform="translate(169.529 171.759)" fill="#e0e0e0"/>
  <rect id="Rectangle_106" data-name="Rectangle 106" width="50.139" height="1.919" transform="translate(169.529 184.392)" fill="#e0e0e0"/>
  <rect id="Rectangle_107" data-name="Rectangle 107" width="50.139" height="1.919" transform="translate(169.529 187.753)" fill="#e0e0e0"/>
  <rect id="Rectangle_108" data-name="Rectangle 108" width="21.158" height="1.919" transform="translate(169.529 181.036)" fill="#e0e0e0"/>
  <rect id="Rectangle_109" data-name="Rectangle 109" width="15.823" height="1.919" transform="translate(203.846 181.036)" fill="#3ad29f" opacity="0.6"/>
  <rect id="Rectangle_110" data-name="Rectangle 110" width="15.823" height="1.919" transform="translate(187.131 195.588)" fill="#d99519"/>
  <path id="Path_33" data-name="Path 33" d="M128.83,363.36V509.305l116.945,26.988,1.578-144.845Z" transform="translate(-66.068 -204.137)" fill="#535461"/>
  <path id="Path_34" data-name="Path 34" d="M485.829,508.757,368.88,536.294V391.448L485.829,363.36Z" transform="translate(-189.174 -204.137)" fill="#535461"/>
  <path id="Path_35" data-name="Path 35" d="M485.829,508.757,368.88,536.294V391.448L485.829,363.36Z" transform="translate(-189.174 -204.137)" opacity="0.07"/>
  <path id="Path_36" data-name="Path 36" d="M513.42,569.738v47.912l46.534-11.564V558.17Z" transform="translate(-263.298 -313.583)" opacity="0.07"/>
  <rect id="Rectangle_111" data-name="Rectangle 111" width="34.491" height="29.806" transform="translate(235.453 147.049)" fill="url(#linear-gradient-21)"/>
  <rect id="Rectangle_112" data-name="Rectangle 112" width="33.41" height="28.47" transform="translate(235.994 147.777)" fill="#f5f5f5"/>
  <g id="Group_48" data-name="Group 48" transform="translate(245.61 151.287)" opacity="0.5">
    <path id="Path_37" data-name="Path 37" d="M747.205,414.481V413H741.3v1.464H737.16v7.178h14.181v-7.16Zm-5.169-.929h4.433v.929h-4.433Z" transform="translate(-737.16 -413)" fill="url(#linear-gradient-86)"/>
  </g>
  <rect id="Rectangle_113" data-name="Rectangle 113" width="12.983" height="6.569" transform="translate(246.205 153.009)" fill="#d99519" opacity="0.6"/>
  <path id="Path_38" data-name="Path 38" d="M513.16,346.13v1.7h.677v-1.218H517.9v1.218h.672v-1.7Z" transform="translate(-263.165 -194.458)" fill="#d99519" opacity="0.6"/>
  <g id="Group_49" data-name="Group 49" transform="translate(246.95 164.691)" opacity="0.6">
    <rect id="Rectangle_114" data-name="Rectangle 114" width="12.038" height="1.459" fill="#d99519"/>
  </g>
  <rect id="Rectangle_115" data-name="Rectangle 115" width="20.558" height="1.459" transform="translate(242.419 167.369)" fill="#bdbdbd"/>
  <rect id="Rectangle_116" data-name="Rectangle 116" width="34.491" height="29.806" transform="translate(202.389)" fill="url(#linear-gradient-21)"/>
  <rect id="Rectangle_117" data-name="Rectangle 117" width="33.41" height="28.47" transform="translate(202.93 0.732)" fill="#f5f5f5"/>
  <g id="Group_50" data-name="Group 50" transform="translate(212.546 4.259)" opacity="0.5">
    <path id="Path_39" data-name="Path 39" d="M679.335,78.929V77.47h-5.909v1.459H669.29v7.178h14.181V78.929ZM674.167,78H678.6v.929h-4.433Z" transform="translate(-669.29 -77.47)" fill="url(#linear-gradient-88)"/>
  </g>
  <rect id="Rectangle_118" data-name="Rectangle 118" width="12.983" height="6.569" transform="translate(213.141 5.959)" fill="#d99519" opacity="0.6"/>
  <path id="Path_40" data-name="Path 40" d="M445.29,10.55v1.7h.677V11.036h4.058v1.218h.672v-1.7Z" transform="translate(-228.359 -5.927)" fill="#d99519" opacity="0.6"/>
  <g id="Group_51" data-name="Group 51" transform="translate(213.886 17.642)" opacity="0.6">
    <rect id="Rectangle_119" data-name="Rectangle 119" width="12.038" height="1.459" fill="#d99519"/>
  </g>
  <rect id="Rectangle_120" data-name="Rectangle 120" width="20.558" height="1.459" transform="translate(209.355 20.319)" fill="#bdbdbd"/>
  <g id="Group_52" data-name="Group 52" transform="translate(153.687 55.931)" opacity="0.5">
    <rect id="Rectangle_121" data-name="Rectangle 121" width="44.688" height="33.018" fill="url(#linear-gradient-49)"/>
  </g>
  <rect id="Rectangle_122" data-name="Rectangle 122" width="43.563" height="31.844" transform="translate(154.208 56.558)" fill="#f2f2f2"/>
  <rect id="Rectangle_123" data-name="Rectangle 123" width="43.563" height="7.103" transform="translate(154.208 56.558)" fill="#d99519"/>
  <rect id="Rectangle_124" data-name="Rectangle 124" width="43.563" height="7.103" transform="translate(154.208 56.558)" opacity="0.1"/>
  <rect id="Rectangle_125" data-name="Rectangle 125" width="36.62" height="4.137" transform="translate(157.682 66.238)" fill="#e0e0e0"/>
  <rect id="Rectangle_126" data-name="Rectangle 126" width="26.726" height="1.407" transform="translate(157.682 73.494)" fill="#e0e0e0"/>
  <rect id="Rectangle_127" data-name="Rectangle 127" width="17.353" height="1.407" transform="translate(157.682 75.913)" fill="#e0e0e0"/>
  <rect id="Rectangle_128" data-name="Rectangle 128" width="22.907" height="1.407" transform="translate(157.682 78.332)" fill="#e0e0e0"/>
  <rect id="Rectangle_129" data-name="Rectangle 129" width="26.726" height="1.407" transform="translate(157.682 80.755)" fill="#e0e0e0"/>
  <rect id="Rectangle_130" data-name="Rectangle 130" width="8.94" height="1.407" transform="translate(157.682 83.174)" fill="#e0e0e0"/>
  <g id="Group_53" data-name="Group 53" transform="translate(219.386 80.724)" opacity="0.5">
    <rect id="Rectangle_131" data-name="Rectangle 131" width="55.391" height="40.923" fill="url(#linear-gradient-21)"/>
  </g>
  <rect id="Rectangle_132" data-name="Rectangle 132" width="53.993" height="39.473" transform="translate(220.034 81.495)" fill="#fff"/>
  <rect id="Rectangle_133" data-name="Rectangle 133" width="53.993" height="8.803" transform="translate(220.034 81.495)" fill="#d99519"/>
  <rect id="Rectangle_134" data-name="Rectangle 134" width="45.389" height="5.127" transform="translate(224.336 93.493)" fill="#f5f5f5"/>
  <rect id="Rectangle_135" data-name="Rectangle 135" width="33.127" height="1.74" transform="translate(224.336 102.489)" fill="#e0e0e0"/>
  <rect id="Rectangle_136" data-name="Rectangle 136" width="21.513" height="1.74" transform="translate(224.336 105.491)" fill="#e0e0e0"/>
  <rect id="Rectangle_137" data-name="Rectangle 137" width="28.392" height="1.74" transform="translate(224.336 108.488)" fill="#e0e0e0"/>
  <rect id="Rectangle_138" data-name="Rectangle 138" width="33.127" height="1.74" transform="translate(224.336 111.49)" fill="#e0e0e0"/>
  <rect id="Rectangle_139" data-name="Rectangle 139" width="11.078" height="1.74" transform="translate(224.336 114.487)" fill="#e0e0e0"/>
  <rect id="Rectangle_140" data-name="Rectangle 140" width="12.905" height="1.547" transform="translate(226.703 95.233)" fill="#69f0ae"/>
  <path id="Path_41" data-name="Path 41" d="M125.69,441.561,191.2,456.429l52.658-38.552V394.2L126.913,367.76Z" transform="translate(-64.458 -206.609)" opacity="0.1"/>
  <path id="Path_42" data-name="Path 42" d="M486.432,441.561l-65.514,14.868L368.26,417.876V394.2L485.209,367.76Z" transform="translate(-188.856 -206.609)" opacity="0.1"/>
  <path id="Path_43" data-name="Path 43" d="M65.664,363.36l-60,44.608L122.6,434.4l60-42.956Z" transform="translate(-2.903 -204.137)" fill="#535461"/>
  <path id="Path_44" data-name="Path 44" d="M485.829,363.36l60.618,44.608L430.112,434.4,368.88,391.448Z" transform="translate(-189.174 -204.137)" fill="#535461"/>
  <path id="Path_45" data-name="Path 45" d="M485.829,363.36l60.618,44.608L430.112,434.4,368.88,391.448Z" transform="translate(-189.174 -204.137)" opacity="0.07"/>
</svg>
